<svg xmlns="http://www.w3.org/2000/svg" xmlns:xlink="http://www.w3.org/1999/xlink" width="1366" height="486" viewBox="0 0 1366 486"><defs><linearGradient id="a" y1="0.426" x2="0.979" y2="0.426" gradientUnits="objectBoundingBox"><stop offset="0" stop-color="#2699fb"/><stop offset="1" stop-color="#1565c0"/></linearGradient><clipPath id="b"><rect width="1366" height="486" fill="#e51414"/></clipPath><clipPath id="d"><path d="M0,0H1366a0,0,0,0,1,0,0V486.242a0,0,0,0,1,0,0H80a80,80,0,0,1-80-80V0A0,0,0,0,1,0,0Z" transform="translate(0 -47)" opacity="0.5" fill="url(#a)"/></clipPath><linearGradient id="g" y1="0.426" x2="1" y2="0.426" xlink:href="#a"/></defs><g clip-path="url(#b)"><path d="M0,0H1366a0,0,0,0,1,0,0V486.242a0,0,0,0,1,0,0H80a80,80,0,0,1-80-80V0A0,0,0,0,1,0,0Z" transform="translate(0 0)" fill="#fff"/><path d="M0,0H1366a0,0,0,0,1,0,0V486.242a0,0,0,0,1,0,0H80a80,80,0,0,1-80-80V0A0,0,0,0,1,0,0Z" transform="translate(0 0)" opacity="0.86" fill="url(#a)"/><g transform="translate(0 47)" clip-path="url(#d)"><circle cx="474.679" cy="474.679" r="474.679" transform="translate(-90 -369)" opacity="0.5" fill="url(#a)"/><circle cx="333.406" cy="333.406" r="333.406" transform="translate(-90 -228)" opacity="0.6" fill="url(#a)"/><circle cx="194.016" cy="194.016" r="194.016" transform="translate(-90 -88)" opacity="0.4" fill="url(#g)"/></g></g></svg>